<?xml version="1.0" encoding="UTF-8" standalone="no"?>
<!DOCTYPE svg PUBLIC "-//W3C//DTD SVG 1.1//EN"
 "http://www.w3.org/Graphics/SVG/1.1/DTD/svg11.dtd">
<!-- Generated by graphviz version 8.0.5 (20230430.1635)
 -->
<!-- Title: dependency&#45;cruiser output Pages: 1 -->
<svg width="368pt" height="280pt"
 viewBox="0.00 0.00 368.25 280.00" xmlns="http://www.w3.org/2000/svg" xmlns:xlink="http://www.w3.org/1999/xlink">
<g id="graph0" class="graph" transform="scale(1 1) rotate(0) translate(4 276)">
<title>dependency&#45;cruiser output</title>
<polygon fill="white" stroke="none" points="-4,4 -4,-276 364.25,-276 364.25,4 -4,4"/>
<g id="clust1" class="cluster">
<title>cluster_src</title>
<path fill="#ffffff" stroke="black" stroke-width="2" d="M20,-8C20,-8 340.25,-8 340.25,-8 346.25,-8 352.25,-14 352.25,-20 352.25,-20 352.25,-252 352.25,-252 352.25,-258 346.25,-264 340.25,-264 340.25,-264 20,-264 20,-264 14,-264 8,-258 8,-252 8,-252 8,-20 8,-20 8,-14 14,-8 20,-8"/>
<text text-anchor="middle" x="180.12" y="-251.45" font-family="Helvetica,sans-Serif" font-weight="bold" font-size="9.00">src</text>
</g>
<g id="clust2" class="cluster">
<title>cluster_src/modals</title>
<path fill="#ffffff" stroke="black" stroke-width="2" d="M203,-42C203,-42 270.25,-42 270.25,-42 276.25,-42 282.25,-48 282.25,-54 282.25,-54 282.25,-112 282.25,-112 282.25,-118 276.25,-124 270.25,-124 270.25,-124 203,-124 203,-124 197,-124 191,-118 191,-112 191,-112 191,-54 191,-54 191,-48 197,-42 203,-42"/>
<text text-anchor="middle" x="236.62" y="-111.45" font-family="Helvetica,sans-Serif" font-weight="bold" font-size="9.00">modals</text>
</g>
<g id="clust3" class="cluster">
<title>cluster_src/utils</title>
<path fill="#ffffff" stroke="black" stroke-width="2" d="M204.12,-132C204.12,-132 269.12,-132 269.12,-132 275.12,-132 281.12,-138 281.12,-144 281.12,-144 281.12,-202 281.12,-202 281.12,-208 275.12,-214 269.12,-214 269.12,-214 204.12,-214 204.12,-214 198.12,-214 192.12,-208 192.12,-202 192.12,-202 192.12,-144 192.12,-144 192.12,-138 198.12,-132 204.12,-132"/>
<text text-anchor="middle" x="236.62" y="-201.45" font-family="Helvetica,sans-Serif" font-weight="bold" font-size="9.00">utils</text>
</g>
<!-- src/commands.ts -->
<g id="node1" class="node">
<title>src/commands.ts</title>
<g id="a_node1"><a xlink:href="src/commands.ts" xlink:title="commands.ts">
<path fill="#ddfeff" stroke="black" d="M265.71,-33.88C265.71,-33.88 207.54,-33.88 207.54,-33.88 204.58,-33.88 201.62,-30.92 201.62,-27.96 201.62,-27.96 201.62,-22.04 201.62,-22.04 201.62,-19.08 204.58,-16.12 207.54,-16.12 207.54,-16.12 265.71,-16.12 265.71,-16.12 268.67,-16.12 271.62,-19.08 271.62,-22.04 271.62,-22.04 271.62,-27.96 271.62,-27.96 271.62,-30.92 268.67,-33.88 265.71,-33.88"/>
<text text-anchor="start" x="209.62" y="-21.32" font-family="Helvetica,sans-Serif" font-size="9.00">commands.ts</text>
</a>
</g>
</g>
<!-- src/types.ts -->
<g id="node2" class="node">
<title>src/types.ts</title>
<g id="a_node2"><a xlink:href="src/types.ts" xlink:title="types.ts">
<path fill="#ddfeff" stroke="black" d="M338.33,-209.88C338.33,-209.88 296.17,-209.88 296.17,-209.88 293.21,-209.88 290.25,-206.92 290.25,-203.96 290.25,-203.96 290.25,-198.04 290.25,-198.04 290.25,-195.08 293.21,-192.12 296.17,-192.12 296.17,-192.12 338.33,-192.12 338.33,-192.12 341.29,-192.12 344.25,-195.08 344.25,-198.04 344.25,-198.04 344.25,-203.96 344.25,-203.96 344.25,-206.92 341.29,-209.88 338.33,-209.88"/>
<text text-anchor="start" x="301.88" y="-197.32" font-family="Helvetica,sans-Serif" font-size="9.00">types.ts</text>
</a>
</g>
</g>
<!-- src/commands.ts&#45;&gt;src/types.ts -->
<g id="edge1" class="edge">
<title>src/commands.ts&#45;&gt;src/types.ts</title>
<path fill="none" stroke="#000000" stroke-width="2" stroke-opacity="0.200000" d="M272.07,-31.54C275.89,-33.44 279.41,-35.87 282.25,-39 301.31,-60 311.19,-144.91 314.72,-182.7"/>
<polygon fill="#000000" fill-opacity="0.200000" stroke="#000000" stroke-width="2" stroke-opacity="0.200000" points="312.89,-182.84 315.51,-188.63 317.07,-182.46 312.89,-182.84"/>
</g>
<!-- src/commandsActions.ts -->
<g id="node3" class="node">
<title>src/commandsActions.ts</title>
<g id="a_node3"><a xlink:href="src/commandsActions.ts" xlink:title="commandsActions.ts">
<path fill="#ddfeff" stroke="black" d="M177.08,-172.88C177.08,-172.88 88.92,-172.88 88.92,-172.88 85.96,-172.88 83,-169.92 83,-166.96 83,-166.96 83,-161.04 83,-161.04 83,-158.08 85.96,-155.12 88.92,-155.12 88.92,-155.12 177.08,-155.12 177.08,-155.12 180.04,-155.12 183,-158.08 183,-161.04 183,-161.04 183,-166.96 183,-166.96 183,-169.92 180.04,-172.88 177.08,-172.88"/>
<text text-anchor="start" x="91" y="-160.32" font-family="Helvetica,sans-Serif" font-size="9.00">commandsActions.ts</text>
</a>
</g>
</g>
<!-- src/commandsActions.ts&#45;&gt;src/commands.ts -->
<g id="edge2" class="edge">
<title>src/commandsActions.ts&#45;&gt;src/commands.ts</title>
<path fill="none" stroke="#000000" stroke-width="2" stroke-opacity="0.200000" d="M135.52,-154.95C139.85,-132.05 154.35,-71.37 191,-39 191.86,-38.24 192.75,-37.53 193.68,-36.85"/>
<polygon fill="#000000" fill-opacity="0.200000" stroke="#000000" stroke-width="2" stroke-opacity="0.200000" points="195.22,-38.22 199.35,-33.39 193.11,-34.59 195.22,-38.22"/>
</g>
<!-- src/commandsActions.ts&#45;&gt;src/types.ts -->
<g id="edge4" class="edge">
<title>src/commandsActions.ts&#45;&gt;src/types.ts</title>
<path fill="none" stroke="#000000" stroke-width="2" stroke-opacity="0.200000" d="M140.42,-173.31C149.8,-186.01 168.61,-208.2 191,-217 228.74,-231.84 242.67,-225.85 282.25,-217 285.5,-216.27 288.8,-215.2 292.01,-213.95"/>
<polygon fill="#000000" fill-opacity="0.200000" stroke="#000000" stroke-width="2" stroke-opacity="0.200000" points="293.53,-215.69 298.17,-211.34 291.83,-211.85 293.53,-215.69"/>
</g>
<!-- src/modals/testModal.json -->
<g id="node4" class="node">
<title>src/modals/testModal.json</title>
<g id="a_node4"><a xlink:href="src/modals/testModal.json" xlink:title="testModal.json">
<path fill="#ffee44" stroke="black" d="M268.33,-97.88C268.33,-97.88 204.92,-97.88 204.92,-97.88 201.96,-97.88 199,-94.92 199,-91.96 199,-91.96 199,-86.04 199,-86.04 199,-83.08 201.96,-80.12 204.92,-80.12 204.92,-80.12 268.33,-80.12 268.33,-80.12 271.29,-80.12 274.25,-83.08 274.25,-86.04 274.25,-86.04 274.25,-91.96 274.25,-91.96 274.25,-94.92 271.29,-97.88 268.33,-97.88"/>
<text text-anchor="start" x="207" y="-85.33" font-family="Helvetica,sans-Serif" font-size="9.00">testModal.json</text>
</a>
</g>
</g>
<!-- src/commandsActions.ts&#45;&gt;src/modals/testModal.json -->
<g id="edge3" class="edge">
<title>src/commandsActions.ts&#45;&gt;src/modals/testModal.json</title>
<path fill="none" stroke="#000000" stroke-width="2" stroke-opacity="0.200000" d="M146.46,-154.8C163.83,-141.98 195.5,-118.61 216.04,-103.45"/>
<polygon fill="#000000" fill-opacity="0.200000" stroke="#000000" stroke-width="2" stroke-opacity="0.200000" points="217.48,-104.52 221.06,-99.27 214.99,-101.14 217.48,-104.52"/>
</g>
<!-- src/utils/discordUtils.ts -->
<g id="node5" class="node">
<title>src/utils/discordUtils.ts</title>
<g id="a_node5"><a xlink:href="src/utils/discordUtils.ts" xlink:title="discordUtils.ts">
<path fill="#ddfeff" stroke="black" d="M267.21,-187.88C267.21,-187.88 206.04,-187.88 206.04,-187.88 203.08,-187.88 200.12,-184.92 200.12,-181.96 200.12,-181.96 200.12,-176.04 200.12,-176.04 200.12,-173.08 203.08,-170.12 206.04,-170.12 206.04,-170.12 267.21,-170.12 267.21,-170.12 270.17,-170.12 273.12,-173.08 273.12,-176.04 273.12,-176.04 273.12,-181.96 273.12,-181.96 273.12,-184.92 270.17,-187.88 267.21,-187.88"/>
<text text-anchor="start" x="208.12" y="-175.32" font-family="Helvetica,sans-Serif" font-size="9.00">discordUtils.ts</text>
</a>
</g>
</g>
<!-- src/commandsActions.ts&#45;&gt;src/utils/discordUtils.ts -->
<g id="edge5" class="edge">
<title>src/commandsActions.ts&#45;&gt;src/utils/discordUtils.ts</title>
<path fill="none" stroke="#000000" stroke-width="2" stroke-opacity="0.200000" d="M183.32,-171.28C185.93,-171.67 188.54,-172.05 191.14,-172.43"/>
<polygon fill="#000000" fill-opacity="0.200000" stroke="#000000" stroke-width="2" stroke-opacity="0.200000" points="191.57,-174.92 197.82,-173.71 192.19,-170.76 191.57,-174.92"/>
</g>
<!-- src/utils/reddit.ts -->
<g id="node6" class="node">
<title>src/utils/reddit.ts</title>
<g id="a_node6"><a xlink:href="src/utils/reddit.ts" xlink:title="reddit.ts">
<path fill="#ddfeff" stroke="black" d="M257.71,-157.88C257.71,-157.88 215.54,-157.88 215.54,-157.88 212.58,-157.88 209.62,-154.92 209.62,-151.96 209.62,-151.96 209.62,-146.04 209.62,-146.04 209.62,-143.08 212.58,-140.12 215.54,-140.12 215.54,-140.12 257.71,-140.12 257.71,-140.12 260.67,-140.12 263.62,-143.08 263.62,-146.04 263.62,-146.04 263.62,-151.96 263.62,-151.96 263.62,-154.92 260.67,-157.88 257.71,-157.88"/>
<text text-anchor="start" x="220.5" y="-145.32" font-family="Helvetica,sans-Serif" font-size="9.00">reddit.ts</text>
</a>
</g>
</g>
<!-- src/commandsActions.ts&#45;&gt;src/utils/reddit.ts -->
<g id="edge6" class="edge">
<title>src/commandsActions.ts&#45;&gt;src/utils/reddit.ts</title>
<path fill="none" stroke="#000000" stroke-width="2" stroke-opacity="0.200000" d="M183.32,-156.72C189.23,-155.85 195.17,-154.97 200.81,-154.14"/>
<polygon fill="#000000" fill-opacity="0.200000" stroke="#000000" stroke-width="2" stroke-opacity="0.200000" points="201.76,-155.83 207.38,-152.87 201.14,-151.67 201.76,-155.83"/>
</g>
<!-- src/utils/discordUtils.ts&#45;&gt;src/types.ts -->
<g id="edge10" class="edge">
<title>src/utils/discordUtils.ts&#45;&gt;src/types.ts</title>
<path fill="none" stroke="#000000" stroke-width="2" stroke-opacity="0.200000" d="M270.97,-188.33C274.45,-189.3 277.99,-190.29 281.49,-191.27"/>
<polygon fill="#000000" fill-opacity="0.200000" stroke="#000000" stroke-width="2" stroke-opacity="0.200000" points="281.66,-194.06 288.01,-193.66 282.8,-190.02 281.66,-194.06"/>
</g>
<!-- src/index.ts -->
<g id="node7" class="node">
<title>src/index.ts</title>
<g id="a_node7"><a xlink:href="src/index.ts" xlink:title="index.ts">
<path fill="#ddfeff" stroke="black" d="M64.08,-212.88C64.08,-212.88 21.92,-212.88 21.92,-212.88 18.96,-212.88 16,-209.92 16,-206.96 16,-206.96 16,-201.04 16,-201.04 16,-198.08 18.96,-195.12 21.92,-195.12 21.92,-195.12 64.08,-195.12 64.08,-195.12 67.04,-195.12 70,-198.08 70,-201.04 70,-201.04 70,-206.96 70,-206.96 70,-209.92 67.04,-212.88 64.08,-212.88"/>
<text text-anchor="start" x="27.25" y="-200.32" font-family="Helvetica,sans-Serif" font-size="9.00">index.ts</text>
</a>
</g>
</g>
<!-- src/index.ts&#45;&gt;src/types.ts -->
<g id="edge8" class="edge">
<title>src/index.ts&#45;&gt;src/types.ts</title>
<path fill="none" stroke="#000000" stroke-width="2" stroke-opacity="0.200000" d="M70.46,-212.87C115.23,-226.46 208.24,-248.49 282.25,-225 288.45,-223.03 294.49,-219.48 299.73,-215.7"/>
<polygon fill="#000000" fill-opacity="0.200000" stroke="#000000" stroke-width="2" stroke-opacity="0.200000" points="301.33,-216.53 304.73,-211.16 298.72,-213.24 301.33,-216.53"/>
</g>
<!-- src/index.ts&#45;&gt;src/commandsActions.ts -->
<g id="edge7" class="edge">
<title>src/index.ts&#45;&gt;src/commandsActions.ts</title>
<path fill="none" stroke="#000000" stroke-width="2" stroke-opacity="0.200000" d="M64.41,-194.72C75.99,-189.46 90.66,-182.79 103.38,-177.01"/>
<polygon fill="#000000" fill-opacity="0.200000" stroke="#000000" stroke-width="2" stroke-opacity="0.200000" points="104.8,-178.76 109.4,-174.37 103.06,-174.94 104.8,-178.76"/>
</g>
<!-- src/modals/def.ts -->
<g id="node8" class="node">
<title>src/modals/def.ts</title>
<g id="a_node8"><a xlink:href="src/modals/def.ts" xlink:title="no&#45;orphans">
<path fill="#ccffcc" stroke="orange" d="M257.71,-67.88C257.71,-67.88 215.54,-67.88 215.54,-67.88 212.58,-67.88 209.62,-64.92 209.62,-61.96 209.62,-61.96 209.62,-56.04 209.62,-56.04 209.62,-53.08 212.58,-50.12 215.54,-50.12 215.54,-50.12 257.71,-50.12 257.71,-50.12 260.67,-50.12 263.62,-53.08 263.62,-56.04 263.62,-56.04 263.62,-61.96 263.62,-61.96 263.62,-64.92 260.67,-67.88 257.71,-67.88"/>
<text text-anchor="start" x="225.75" y="-55.33" font-family="Helvetica,sans-Serif" font-size="9.00" fill="orange">def.ts</text>
</a>
</g>
</g>
<!-- src/register.ts -->
<g id="node9" class="node">
<title>src/register.ts</title>
<g id="a_node9"><a xlink:href="src/register.ts" xlink:title="register.ts">
<path fill="#ddfeff" stroke="black" d="M154.96,-33.88C154.96,-33.88 111.04,-33.88 111.04,-33.88 108.08,-33.88 105.12,-30.92 105.12,-27.96 105.12,-27.96 105.12,-22.04 105.12,-22.04 105.12,-19.08 108.08,-16.12 111.04,-16.12 111.04,-16.12 154.96,-16.12 154.96,-16.12 157.92,-16.12 160.88,-19.08 160.88,-22.04 160.88,-22.04 160.88,-27.96 160.88,-27.96 160.88,-30.92 157.92,-33.88 154.96,-33.88"/>
<text text-anchor="start" x="113.12" y="-21.32" font-family="Helvetica,sans-Serif" font-size="9.00">register.ts</text>
</a>
</g>
</g>
<!-- src/register.ts&#45;&gt;src/commands.ts -->
<g id="edge9" class="edge">
<title>src/register.ts&#45;&gt;src/commands.ts</title>
<path fill="none" stroke="#000000" stroke-width="2" stroke-opacity="0.200000" d="M161.23,-25C170.88,-25 181.98,-25 192.62,-25"/>
<polygon fill="#000000" fill-opacity="0.200000" stroke="#000000" stroke-width="2" stroke-opacity="0.200000" points="192.4,-27.1 198.4,-25 192.4,-22.9 192.4,-27.1"/>
</g>
<!-- src/test.ts -->
<g id="node10" class="node">
<title>src/test.ts</title>
<g id="a_node10"><a xlink:href="src/test.ts" xlink:title="no&#45;orphans">
<path fill="#ccffcc" stroke="orange" d="M64.08,-135.88C64.08,-135.88 21.92,-135.88 21.92,-135.88 18.96,-135.88 16,-132.92 16,-129.96 16,-129.96 16,-124.04 16,-124.04 16,-121.08 18.96,-118.12 21.92,-118.12 21.92,-118.12 64.08,-118.12 64.08,-118.12 67.04,-118.12 70,-121.08 70,-124.04 70,-124.04 70,-129.96 70,-129.96 70,-132.92 67.04,-135.88 64.08,-135.88"/>
<text text-anchor="start" x="31.38" y="-123.33" font-family="Helvetica,sans-Serif" font-size="9.00" fill="orange">test.ts</text>
</a>
</g>
</g>
</g>
</svg>
